<svg width="1080" height="1080" viewBox="0 0 1080 1080" fill="none" xmlns="http://www.w3.org/2000/svg">
<rect x="0.999023" width="1079" height="1079" fill="white"/>
<rect y="590.453" width="1079" height="489.547" fill="#D59D29"/>
<path d="M29.9727 944.14C29.9727 935.855 36.6884 929.14 44.9727 929.14H1034.03C1042.31 929.14 1049.03 935.855 1049.03 944.14V1035.03C1049.03 1043.31 1042.31 1050.03 1034.03 1050.03H44.9726C36.6884 1050.03 29.9727 1043.31 29.9727 1035.03V944.14Z" fill="white"/>
<path d="M659.389 0.999023H1049.03V74.9121C1049.03 85.9578 1040.07 94.9121 1029.03 94.9121H679.389C668.343 94.9121 659.389 85.9578 659.389 74.9121V0.999023Z" fill="#D59D29"/>
<path d="M32.9697 0.999023H250.768V113.876C250.768 124.922 241.814 133.876 230.768 133.876H52.9697C41.924 133.876 32.9697 124.922 32.9697 113.876V0.999023Z" fill="#D59D29"/>
<path d="M43.959 0.999023H239.778V102.886C239.778 113.932 230.823 122.886 219.778 122.886H63.959C52.9133 122.886 43.959 113.932 43.959 102.886V0.999023Z" fill="white"/>
<rect x="234.289" y="235.289" width="610.421" height="603.427" stroke="#D59D29" stroke-width="15"/>
<rect x="222.799" y="223.797" width="633.404" height="633.404" stroke="white" stroke-width="10"/>
</svg>
